Coordinates
version=1
nRows=21
nColumns=28
inDegrees=yes

Units are S.I. units (second, meters, Newtons, ...)
Angles are in degrees.

endheader
time	pelvis_tilt	pelvis_list	pelvis_rotation	pelvis_tx	pelvis_ty	pelvis_tz	hip_flexion_r	hip_adduction_r	hip_rotation_r	knee_angle_r	ankle_angle_r	subtalar_angle_r	mtp_angle_r	hip_flexion_l	hip_adduction_l	hip_rotation_l	knee_angle_l	socket_flexion	socket_adduction	socket_rotation	socket_tx	socket_ty	socket_tz	foot_flex	lumbar_extension	lumbar_bending	lumbar_rotation
      0.64583333	     -3.04735143	     -3.80218034	      4.23669920	     -0.05063383	      0.97266366	      0.27588368	     29.86590940	      7.51284678	      2.74117716	     -7.99708884	     16.68935551	    -23.82300789	     -2.88751800	    -19.00010227	     -3.20516278	      1.90253001	     -6.98208982	      0.01771884	      0.00000000	      0.00000000	      0.00000000	     -0.00161182	      0.00000000	     10.17300779	     -7.87465655	      2.31054829	      0.59475905
      0.65000000	     -3.00009412	     -3.90084264	      4.34678917	     -0.04436403	      0.97160226	      0.27561298	     29.99377489	      7.70966030	      2.96036736	     -8.73132312	     16.47566480	    -23.97119150	     -2.90928770	    -19.35395145	     -3.34980381	      1.99863574	     -7.06330094	      0.09668138	      0.00000000	      0.00000000	      0.00000000	     -0.00157412	      0.00000000	     10.19645065	     -7.86445150	      2.54462366	      0.52237864
      0.65416667	     -2.71291820	     -4.13613522	      4.32165741	     -0.03776746	      0.97087824	      0.27539252	     29.71315541	      8.13888660	      3.41042211	     -9.16039197	     15.50538653	    -25.29055703	     -2.44114560	    -20.22522817	     -3.59507647	      1.74868357	     -6.50154327	      0.58584373	      0.00000000	      0.00000000	      0.00000000	     -0.00155401	      0.00000000	     10.20556182	     -8.06403682	      2.99058594	      0.45390279
      0.65833333	     -2.67827356	     -4.20650115	      4.42016142	     -0.03143668	      0.96991838	      0.27523610	     29.83420884	      8.32143457	      3.64994643	     -9.90917570	     15.28275016	    -25.31635876	     -2.43569835	    -20.51840047	     -3.71953554	      1.88904181	     -6.69503764	      0.59976454	      0.00000000	      0.00000000	      0.00000000	     -0.00132889	      0.00000000	     10.20748154	     -8.04075292	      3.16728343	      0.43272114
      0.66250000	     -2.60742413	     -4.29150416	      4.45246838	     -0.02513447	      0.96893269	      0.27508843	     30.01641552	      8.53887289	      3.72458280	    -10.84317373	     14.93638847	    -25.45368744	     -2.41728730	    -20.84245495	     -3.81960699	      1.82276257	     -6.94507421	      0.61375905	      0.00000000	      0.00000000	      0.00000000	     -0.00129031	      0.00000000	     10.17481913	     -8.06247221	      3.38532717	      0.37913291
      0.66666667	     -2.51037217	     -4.39175926	      4.45013492	     -0.01867508	      0.96802592	      0.27490844	     30.16958455	      8.77365241	      3.67470389	    -11.78051336	     14.44418722	    -25.69066047	     -2.29356037	    -21.18209752	     -3.91119359	      1.61527818	     -7.25612713	      0.59451035	      0.00000000	      0.00000000	      0.00000000	     -0.00116097	      0.00000000	     10.12453574	     -8.07229092	      3.62440309	      0.33293661
      0.67083333	     -2.43208102	     -4.50254054	      4.47988114	     -0.01224549	      0.96721985	      0.27472096	     30.27566171	      9.00644424	      3.73400488	    -12.59917400	     13.97197029	    -25.86041924	     -2.13230387	    -21.47856844	     -4.03422084	      1.55377360	     -7.57099757	      0.60486907	      0.00000000	      0.00000000	      0.00000000	     -0.00099478	      0.00000000	     10.05105007	     -8.06653068	      3.87829763	      0.31180452
      0.67500000	     -2.34037214	     -4.63571094	      4.56090821	     -0.00588366	      0.96644365	      0.27451457	     30.25621218	      9.24420269	      4.00182505	    -13.13411560	     11.73395314	    -27.49402521	      2.60317916	    -21.67508398	     -4.19844503	      1.48948362	     -8.17360982	      0.43622982	      0.00000000	      0.00000000	      0.00000000	     -0.00094464	      0.00000000	      9.95126986	     -8.09263231	      4.16150079	      0.25461815
      0.67916667	     -2.28700422	     -4.73584658	      4.62937507	      0.00048106	      0.96570899	      0.27439820	     30.34589983	      9.45464570	      4.16513424	    -13.90295660	     11.47602051	    -27.44069019	      2.60701042	    -21.93238454	     -4.33908533	      1.59342185	     -8.42540659	      0.53377599	      0.00000000	      0.00000000	      0.00000000	     -0.00084372	      0.00000000	      9.85975383	     -8.06552289	      4.38305539	      0.24903783
      0.68333333	     -2.16155060	     -4.89301297	      4.55499609	      0.00703368	      0.96500552	      0.27430264	     30.51334166	      9.74740628	      3.93228876	    -14.96921223	     10.94494188	    -27.45940978	      2.65744739	    -22.25549677	     -4.46296575	      1.28842566	     -8.82371695	      0.52738533	      0.00000000	      0.00000000	      0.00000000	     -0.00077401	      0.00000000	      9.69263681	     -8.10183687	      4.70126791	      0.23532206
      0.68750000	     -2.05473551	     -5.06387553	      4.54623527	      0.01351559	      0.96442695	      0.27420085	     30.60331960	     10.02898786	      3.84996756	    -15.84952887	     10.46514371	    -27.44023941	      2.80403586	    -22.50559331	     -4.63565146	      1.16199224	     -9.28493175	      0.52666281	      0.00000000	      0.00000000	      0.00000000	     -0.00071002	      0.00000000	      9.52264445	     -8.13545004	      5.02542645	      0.26521249
      0.69166667	     -1.98710107	     -5.19710228	      4.57501859	      0.01987313	      0.96391024	      0.27417957	     30.66709041	     10.27784036	      3.99761157	    -16.62289636	     10.15531963	    -27.39802042	      2.86134168	    -22.70766396	     -4.79880229	      1.26153716	     -9.64816249	      0.63306711	      0.00000000	      0.00000000	      0.00000000	     -0.00066329	      0.00000000	      9.35014936	     -8.13999730	      5.28378079	      0.27571301
      0.69583333	     -1.79453051	     -5.36829740	      4.64579851	      0.02637116	      0.96361378	      0.27372952	     30.69870202	     10.42215539	      3.42671463	    -17.48067790	      8.43612060	    -27.73598263	      7.97518407	    -22.72785553	     -4.97380129	      0.99770202	    -10.97339450	      0.11530497	      0.00000000	      0.00000000	      0.00000000	     -0.00036342	      0.00000000	      9.12289813	     -8.24464623	      5.65093378	      0.19436276
      0.70000000	     -1.69915966	     -5.54475174	      4.59841869	      0.03289504	      0.96322385	      0.27369492	     30.78545947	     10.70446037	      3.32048481	    -18.37456587	      8.05710729	    -27.74533441	      7.95258194	    -22.92460949	     -5.14008818	      0.87188530	    -11.46356542	      0.17617103	      0.00000000	      0.00000000	      0.00000000	     -0.00029175	      0.00000000	      8.87092110	     -8.25041399	      5.96353842	      0.24895507
      0.70416667	     -1.62494493	     -5.69265334	      4.56762699	      0.03932266	      0.96293402	      0.27374320	     30.82115900	     10.96772498	      3.40494706	    -19.14435644	      7.78024907	    -27.70082504	      7.94782095	    -23.08300528	     -5.29266540	      0.89323756	    -11.90491133	      0.31564401	      0.00000000	      0.00000000	      0.00000000	     -0.00024433	      0.00000000	      8.59728603	     -8.25381325	      6.23166515	      0.26777769
      0.70833333	     -1.43429200	     -5.96865845	      4.51165904	      0.04592493	      0.96289339	      0.27354224	     30.74915004	     11.30739825	      3.13533426	    -19.91455160	      7.27535288	    -27.60623078	      8.14939753	    -23.10452667	     -5.54119511	      0.53176714	    -13.17960540	     -0.09310295	      0.00000000	      0.00000000	      0.00000000	      0.00010399	      0.00000000	      8.31479637	     -8.34376051	      6.71915283	      0.45604698
      0.71250000	     -1.34022865	     -6.08117943	      4.57648566	      0.05213358	      0.96289531	      0.27353345	     30.79643016	     11.45120522	      2.93361027	    -20.71646588	      6.86295268	    -27.54749087	      8.79837781	    -22.83882764	     -5.70014113	      0.47725201	    -14.74860105	     -0.59002903	      0.00000000	      0.00000000	      0.00000000	      0.00057860	      0.00000000	      7.98696603	     -8.38963591	      6.90928744	      0.36979832
      0.71666667	     -1.25269383	     -6.24754632	      4.53834149	      0.05861927	      0.96289280	      0.27349690	     30.81027932	     11.67359153	      2.76228712	    -21.48757837	      6.52359656	    -27.40306993	      9.37010324	    -22.72527449	     -5.86209185	      0.34451839	    -15.92563910	     -0.83576102	      0.00000000	      0.00000000	      0.00000000	      0.00099547	      0.00000000	      7.64907343	     -8.38632734	      7.21150749	      0.38972138
      0.72083333	     -1.13775131	     -6.47748548	      4.42814060	      0.06522154	      0.96297066	      0.27358495	     30.74750513	     12.00328204	      2.68224418	    -22.19724032	      6.26104598	    -27.24344546	      9.55004958	    -22.73236119	     -6.07038720	      0.10895645	    -16.85419347	     -0.89248908	      0.00000000	      0.00000000	      0.00000000	      0.00129554	      0.00000000	      7.30830182	     -8.42547799	      7.58812978	      0.47789290
      0.72500000	     -1.07064484	     -6.57920532	      4.40080044	      0.07185399	      0.96319901	      0.27368045	     30.63617576	     12.19213904	      2.77378675	    -22.77726075	      6.13838921	    -27.19464763	      9.56888402	    -22.78539431	     -6.18652934	      0.14051965	    -17.32625732	     -0.58147339	      0.00000000	      0.00000000	      0.00000000	      0.00158209	      0.00000000	      7.00720102	     -8.35846806	      7.76385024	      0.49097678
      0.72916667	     -0.91807743	     -6.73086919	      4.42896262	      0.07793020	      0.96353392	      0.27350463	     30.61319004	     12.30438670	      2.28687088	    -23.57180211	      5.92804183	    -26.71719293	     10.33495485	    -22.11157395	     -6.36987510	     -0.08910205	    -20.12260963	     -1.77765659	      0.00000000	      0.00000000	      0.00000000	      0.00283812	      0.00000000	      6.53497121	     -8.49217436	      8.05705934	      0.45056844
